name GIL01_slow3EmgEnv.mot
datacolumns 51
datarows 10
range 0.96759266 0.97592598
endheader
                time	   rect_fem_l_emgRec	   rect_fem_l_emgEnv	   rect_fem_l_emgAve	   rect_fem_l_emgSDp	   rect_fem_l_emgSDm	   rect_fem_r_emgRec	   rect_fem_r_emgEnv	   rect_fem_r_emgAve	   rect_fem_r_emgSDp	   rect_fem_r_emgSDm	   med_hams_l_emgRec	   med_hams_l_emgEnv	   med_hams_l_emgAve	   med_hams_l_emgSDp	   med_hams_l_emgSDm	   med_hams_r_emgRec	   med_hams_r_emgEnv	   med_hams_r_emgAve	   med_hams_r_emgSDp	   med_hams_r_emgSDm	   lat_hams_l_emgRec	   lat_hams_l_emgEnv	   lat_hams_l_emgAve	   lat_hams_l_emgSDp	   lat_hams_l_emgSDm	   lat_hams_r_emgRec	   lat_hams_r_emgEnv	   lat_hams_r_emgAve	   lat_hams_r_emgSDp	   lat_hams_r_emgSDm	    tib_ant_l_emgRec	    tib_ant_l_emgEnv	    tib_ant_l_emgAve	    tib_ant_l_emgSDp	    tib_ant_l_emgSDm	    tib_ant_r_emgRec	    tib_ant_r_emgEnv	    tib_ant_r_emgAve	    tib_ant_r_emgSDp	    tib_ant_r_emgSDm	    gas_sol_l_emgRec	    gas_sol_l_emgEnv	    gas_sol_l_emgAve	    gas_sol_l_emgSDp	    gas_sol_l_emgSDm	    gas_sol_r_emgRec	    gas_sol_r_emgEnv	    gas_sol_r_emgAve	    gas_sol_r_emgSDp	    gas_sol_r_emgSDm	
          0.96759266	          0.14063063	          0.23407604	          0.19825606	          0.26050482	          0.13600731	          0.37185316	          0.61223537	          0.55080253	          0.67765813	          0.42394693	          0.00084595	          0.08618629	          0.21758659	          0.34236793	          0.09280525	          0.12788825	          0.38606842	          0.39907366	          0.54074594	          0.25740138	          0.01306213	          0.04189503	          0.26194781	          0.42073095	          0.10316467	          0.01883095	          0.18630157	          0.20890938	          0.28574994	          0.13206881	          0.00030775	          0.04741512	          0.18506385	          0.42954750	         -0.05941980	          0.41728907	          0.84999128	          0.60677898	          0.87771252	          0.33584544	          0.01298508	          0.07363783	         -0.01060069	         -0.00325943	         -0.01794196	          0.03529169	          0.13871980	          0.18841271	          0.31449194	          0.06233348	
          0.96851856	          0.20352852	          0.23395263	          0.19849534	          0.26083418	          0.13615651	          0.30425333	          0.60632699	          0.54983419	          0.67618884	          0.42347954	          0.01486115	          0.08417010	          0.21660705	          0.34044401	          0.09277008	          0.22075649	          0.38867420	          0.39781198	          0.53888388	          0.25674008	          0.02934507	          0.03853822	          0.25932691	          0.41678137	          0.10187244	          0.05639676	          0.18822633	          0.20838182	          0.28490236	          0.13186128	          0.00821028	          0.04675757	          0.18502152	          0.43079805	         -0.06075501	          0.50960695	          0.85501298	          0.60678005	          0.87707129	          0.33648881	          0.00598497	          0.07111329	         -0.01110473	         -0.00429450	         -0.01791496	          0.00863403	          0.13554364	          0.18814470	          0.31410067	          0.06218873	
          0.96944451	          0.19772293	          0.23381204	          0.19872996	          0.26116082	          0.13629911	          0.06427484	          0.60059444	          0.54885018	          0.67470312	          0.42299724	          0.00356945	          0.08215879	          0.21561193	          0.33849553	          0.09272834	          0.26736186	          0.39108656	          0.39654234	          0.53701141	          0.25607327	          0.04565989	          0.03533055	          0.25668770	          0.41280448	          0.10057092	          0.19731753	          0.19006459	          0.20785254	          0.28405628	          0.13164881	          0.01852491	          0.04614171	          0.18497244	          0.43203376	         -0.06208889	          0.02974992	          0.86007102	          0.60676742	          0.87640527	          0.33712956	          0.00544053	          0.06858059	         -0.01157567	         -0.00527810	         -0.01787324	          0.03791294	          0.13266947	          0.18787369	          0.31370300	          0.06204438	
          0.97037041	          0.17643016	          0.23365606	          0.19895987	          0.26148465	          0.13643510	          0.10467252	          0.59504818	          0.54785073	          0.67320143	          0.42250003	          0.01935375	          0.08015489	          0.21460187	          0.33652382	          0.09267993	          0.28053859	          0.39330379	          0.39526504	          0.53512904	          0.25540105	          0.01822559	          0.03227147	          0.25403118	          0.40880190	          0.09926046	          0.29552660	          0.19181277	          0.20732170	          0.28321188	          0.13143153	          0.02286808	          0.04557003	          0.18491709	          0.43325478	         -0.06342059	          0.23180227	          0.86515312	          0.60674095	          0.87571445	          0.33776745	          0.00073433	          0.06604383	         -0.01201381	         -0.00621054	         -0.01781707	          0.06929584	          0.13009430	          0.18759982	          0.31329907	          0.06190057	
          0.97129637	          0.15643256	          0.23348648	          0.19918501	          0.26180559	          0.13656443	          0.26272462	          0.58969802	          0.54683572	          0.67168353	          0.42198791	          0.00662522	          0.07816090	          0.21357709	          0.33452946	          0.09262472	          0.24516775	          0.39532440	          0.39398009	          0.53323671	          0.25472346	         -0.00007589	          0.02936015	          0.25135761	          0.40477405	          0.09794118	          0.25786601	          0.19346771	          0.20678927	          0.28236915	          0.13120939	          0.01857784	          0.04504491	          0.18485576	          0.43446134	         -0.06474982	          0.34404176	          0.87024698	          0.60670072	          0.87499905	          0.33840239	          0.00553278	          0.06350710	         -0.01241952	         -0.00709239	         -0.01774666	          0.08410778	          0.12781436	          0.18732308	          0.31288891	          0.06175725	
          0.97222227	          0.10597231	          0.23330514	          0.19940539	          0.26212360	          0.13668717	          0.34257728	          0.58455309	          0.54580569	          0.67015015	          0.42146124	          0.01210118	          0.07617929	          0.21253820	          0.33251383	          0.09256256	          0.12199738	          0.39714707	          0.39268771	          0.53133483	          0.25404058	          0.00385299	          0.02659542	          0.24866806	          0.40072256	          0.09661356	          0.10570373	          0.19502668	          0.20625548	          0.28152841	          0.13098255	          0.01902666	          0.04456855	          0.18478884	          0.43565355	         -0.06607588	          0.22161341	          0.87534029	          0.60664654	          0.87425897	          0.33903411	          0.00731179	          0.06097447	         -0.01279314	         -0.00792400	         -0.01766228	          0.08989071	          0.12582514	          0.18704356	          0.31247261	          0.06161451	
          0.97314817	          0.02034431	          0.23311387	          0.19962093	          0.26243860	          0.13680327	          0.07947194	          0.57962185	          0.54476047	          0.66860111	          0.42091982	          0.03132937	          0.07421245	          0.21148552	          0.33047774	          0.09249330	          0.01273066	          0.39877063	          0.39138791	          0.52942348	          0.25335234	          0.01032375	          0.02397586	          0.24596301	          0.39664818	          0.09527783	          0.05309974	          0.19648736	          0.20572035	          0.28068967	          0.13075103	          0.03176608	          0.04414301	          0.18471673	          0.43683162	         -0.06739816	          0.05506574	          0.88042073	          0.60657853	          0.87349436	          0.33966270	          0.01388438	          0.05845000	         -0.01313506	         -0.00870594	         -0.01756417	          0.07421921	          0.12412139	          0.18676139	          0.31205034	          0.06147245	
          0.97407413	          0.06657054	          0.23291453	          0.19983160	          0.26275050	          0.13691271	          0.16087821	          0.57491205	          0.54370016	          0.66703661	          0.42036371	          0.04736812	          0.07226274	          0.21041951	          0.32842218	          0.09241683	          0.08890561	          0.40019410	          0.39008090	          0.52750285	          0.25265895	          0.02011265	          0.02149976	          0.24324290	          0.39255169	          0.09393412	          0.06158873	          0.19784782	          0.20518394	          0.27985302	          0.13051486	          0.03177687	          0.04377018	          0.18463983	          0.43799590	         -0.06871624	          0.19167788	          0.88547599	          0.60649657	          0.87270531	          0.34028783	          0.01588012	          0.05593769	         -0.01344564	         -0.00943873	         -0.01745256	          0.04106522	          0.12269719	          0.18647650	          0.31162204	          0.06133096	
          0.97500002	          0.11182410	          0.23270891	          0.20003739	          0.26305924	          0.13701554	          0.00645463	          0.57043075	          0.54262519	          0.66545714	          0.41979324	          0.04644332	          0.07033245	          0.20934068	          0.32634836	          0.09233299	          0.14053544	          0.40141665	          0.38876683	          0.52557330	          0.25196035	          0.00133569	          0.01916514	          0.24050885	          0.38843477	          0.09258294	          0.00019845	          0.19910656	          0.20464645	          0.27901871	          0.13027420	          0.01667344	          0.04345176	          0.18455850	          0.43914638	         -0.07002939	          0.64460523	          0.89049379	          0.60640067	          0.87189198	          0.34090936	          0.00918973	          0.05344147	         -0.01372528	         -0.01012282	         -0.01732774	          0.01625516	          0.12154595	          0.18618898	          0.31118787	          0.06119009	
          0.97592598	          0.13881318	          0.23249882	          0.20023824	          0.26336476	          0.13711172	          0.17053734	          0.56618426	          0.54153538	          0.66386253	          0.41920823	          0.02185810	          0.06842383	          0.20824941	          0.32425717	          0.09224164	          0.21600817	          0.40243758	          0.38744575	          0.52363487	          0.25125663	          0.00536721	          0.01696979	          0.23776117	          0.38429792	          0.09122442	          0.01924566	          0.20026241	          0.20410793	          0.27818678	          0.13002907	          0.00491432	          0.04318929	          0.18447316	          0.44028345	         -0.07133713	          0.83181373	          0.89546188	          0.60629076	          0.87105426	          0.34152725	          0.01218974	          0.05096522	         -0.01397438	         -0.01075882	         -0.01718994	          0.09727975	          0.12066045	          0.18589897	          0.31074794	          0.06105001	
